<svg xmlns="http://www.w3.org/2000/svg" width="1748" height="1500" viewBox="0 0 1748 1500">
<rect width="1748" height="1500" fill="#f7f6f3"/>
<g transform="translate(874.0,750.0) scale(1.06) translate(-874.0,-750.0)">
<text x="120" y="150" font-family="Georgia, 'Times New Roman', serif" font-size="56" font-weight="bold" fill="#1b1f24" text-anchor="start" >Four Postures</text>
<rect x="120" y="196" width="64" height="6" fill="#0e6e5c"/>
<rect x="124" y="360" width="720" height="400" rx="22" fill="#ffffff" stroke="#cfccc4" stroke-width="2"/>
<rect x="124" y="360" width="720" height="18" rx="9" fill="#0e6e5c"/>
<text x="484.0" y="520" font-family="Georgia, 'Times New Roman', serif" font-size="56" font-weight="bold" fill="#1b1f24" text-anchor="middle" >Defence</text>
<text x="484.0" y="610" font-family="Georgia, 'Times New Roman', serif" font-size="38" font-weight="italic" fill="#4a525c" text-anchor="middle" >the leader</text>
<rect x="904" y="360" width="720" height="400" rx="22" fill="#ffffff" stroke="#cfccc4" stroke-width="2"/>
<rect x="904" y="360" width="720" height="18" rx="9" fill="#3d6b9b"/>
<text x="1264.0" y="520" font-family="Georgia, 'Times New Roman', serif" font-size="56" font-weight="bold" fill="#1b1f24" text-anchor="middle" >Offence</text>
<text x="1264.0" y="610" font-family="Georgia, 'Times New Roman', serif" font-size="38" font-weight="italic" fill="#4a525c" text-anchor="middle" >the challenger</text>
<rect x="124" y="820" width="720" height="400" rx="22" fill="#ffffff" stroke="#cfccc4" stroke-width="2"/>
<rect x="124" y="820" width="720" height="18" rx="9" fill="#7f8c5a"/>
<text x="484.0" y="980" font-family="Georgia, 'Times New Roman', serif" font-size="56" font-weight="bold" fill="#1b1f24" text-anchor="middle" >Flanking</text>
<text x="484.0" y="1070" font-family="Georgia, 'Times New Roman', serif" font-size="38" font-weight="italic" fill="#4a525c" text-anchor="middle" >the creator</text>
<rect x="904" y="820" width="720" height="400" rx="22" fill="#ffffff" stroke="#cfccc4" stroke-width="2"/>
<rect x="904" y="820" width="720" height="18" rx="9" fill="#b4653a"/>
<text x="1264.0" y="980" font-family="Georgia, 'Times New Roman', serif" font-size="56" font-weight="bold" fill="#1b1f24" text-anchor="middle" >Guerrilla</text>
<text x="1264.0" y="1070" font-family="Georgia, 'Times New Roman', serif" font-size="38" font-weight="italic" fill="#4a525c" text-anchor="middle" >small &amp; niche</text>
</g>
</svg>
